<svg xmlns="http://www.w3.org/2000/svg" xmlns:xlink="http://www.w3.org/1999/xlink" width="100" zoomAndPan="magnify" viewBox="0 0 75 74.999997" height="100" preserveAspectRatio="xMidYMid meet" version="1.0"><defs><g/><clipPath id="34e7aaa5cc"><path d="M 25 42 L 41 42 L 41 47.5625 L 25 47.5625 Z M 25 42 " clip-rule="nonzero"/></clipPath><clipPath id="a59afcdabd"><path d="M 37 43 L 39 43 L 39 47.5625 L 37 47.5625 Z M 37 43 " clip-rule="nonzero"/></clipPath><clipPath id="8e1abb9e98"><path d="M 27 43 L 29 43 L 29 47.5625 L 27 47.5625 Z M 27 43 " clip-rule="nonzero"/></clipPath><clipPath id="39fdb69999"><path d="M 29 44 L 31 44 L 31 47.5625 L 29 47.5625 Z M 29 44 " clip-rule="nonzero"/></clipPath><clipPath id="5840c08bf3"><path d="M 32 44 L 34 44 L 34 47.5625 L 32 47.5625 Z M 32 44 " clip-rule="nonzero"/></clipPath><clipPath id="128f827fc3"><path d="M 34 44 L 36 44 L 36 47.5625 L 34 47.5625 Z M 34 44 " clip-rule="nonzero"/></clipPath><clipPath id="47c41ccd0a"><path d="M 27 43 L 29 43 L 29 47.5625 L 27 47.5625 Z M 27 43 " clip-rule="nonzero"/></clipPath><clipPath id="c1a2446776"><path d="M 29 44 L 31 44 L 31 47.5625 L 29 47.5625 Z M 29 44 " clip-rule="nonzero"/></clipPath><clipPath id="e76c84f290"><path d="M 32 44 L 34 44 L 34 47.5625 L 32 47.5625 Z M 32 44 " clip-rule="nonzero"/></clipPath><clipPath id="57f540313f"><path d="M 34 44 L 36 44 L 36 47.5625 L 34 47.5625 Z M 34 44 " clip-rule="nonzero"/></clipPath><clipPath id="7f18e4e98f"><path d="M 22.519531 38 L 38 38 L 38 44 L 22.519531 44 Z M 22.519531 38 " clip-rule="nonzero"/></clipPath><clipPath id="ecc66709d4"><path d="M 22.519531 35 L 38 35 L 38 41 L 22.519531 41 Z M 22.519531 35 " clip-rule="nonzero"/></clipPath><clipPath id="c4dcab254e"><path d="M 22.519531 29 L 38 29 L 38 35 L 22.519531 35 Z M 22.519531 29 " clip-rule="nonzero"/></clipPath><clipPath id="a4a2711a10"><path d="M 22.519531 27.3125 L 38 27.3125 L 38 33 L 22.519531 33 Z M 22.519531 27.3125 " clip-rule="nonzero"/></clipPath><clipPath id="9f9fd6777d"><path d="M 37 32 L 52.519531 32 L 52.519531 47.5625 L 37 47.5625 Z M 37 32 " clip-rule="nonzero"/></clipPath></defs><rect x="-7.5" width="90" fill="#ffffff" y="-7.5" height="89.999996" fill-opacity="1"/><rect x="-7.5" width="90" fill="#010109" y="-7.5" height="89.999996" fill-opacity="1"/><g clip-path="url(#34e7aaa5cc)"><path fill="#ecab2c" d="M 32.734375 47.558594 C 28.503906 47.558594 25.078125 46.425781 25.078125 45.023438 L 25.078125 42.492188 L 40.390625 42.492188 L 40.390625 45.023438 C 40.390625 46.425781 36.960938 47.558594 32.734375 47.558594 " fill-opacity="1" fill-rule="nonzero"/><path fill="#ecab2c" d="M 32.734375 47.558594 C 28.503906 47.558594 25.078125 46.425781 25.078125 45.023438 L 25.078125 42.492188 L 40.390625 42.492188 L 40.390625 45.023438 C 40.390625 46.425781 36.960938 47.558594 32.734375 47.558594 Z M 32.734375 47.558594 " fill-opacity="1" fill-rule="nonzero"/></g><path fill="#d78e0c" d="M 40.390625 42.492188 L 40.390625 45.023438 C 40.390625 45.5 39.992188 45.949219 39.300781 46.328125 C 37.902344 45.425781 36.820312 44.078125 36.253906 42.492188 Z M 40.390625 42.492188 " fill-opacity="1" fill-rule="nonzero"/><g clip-path="url(#a59afcdabd)"><path fill="#d78e0c" d="M 38.363281 44.390625 L 38.363281 46.742188 C 38.042969 46.855469 37.691406 46.960938 37.3125 47.054688 L 37.3125 44.390625 C 37.3125 44.101562 37.546875 43.867188 37.835938 43.867188 C 38.128906 43.867188 38.363281 44.101562 38.363281 44.390625 Z M 38.363281 44.390625 " fill-opacity="1" fill-rule="nonzero"/></g><g clip-path="url(#8e1abb9e98)"><path fill="#ecab2c" d="M 28.15625 44.390625 L 28.15625 47.054688 C 27.773438 46.960938 27.421875 46.855469 27.101562 46.742188 L 27.101562 44.390625 C 27.101562 44.101562 27.339844 43.867188 27.628906 43.867188 C 27.917969 43.867188 28.15625 44.101562 28.15625 44.390625 Z M 28.15625 44.390625 " fill-opacity="1" fill-rule="nonzero"/></g><g clip-path="url(#39fdb69999)"><path fill="#ecab2c" d="M 30.707031 44.699219 L 30.707031 47.46875 C 30.34375 47.4375 29.992188 47.394531 29.65625 47.34375 L 29.65625 44.699219 C 29.65625 44.410156 29.890625 44.175781 30.179688 44.175781 C 30.472656 44.175781 30.707031 44.410156 30.707031 44.699219 Z M 30.707031 44.699219 " fill-opacity="1" fill-rule="nonzero"/></g><g clip-path="url(#5840c08bf3)"><path fill="#ecab2c" d="M 33.257812 45.023438 L 33.257812 47.550781 C 33.085938 47.554688 32.910156 47.558594 32.734375 47.558594 C 32.554688 47.558594 32.378906 47.554688 32.207031 47.550781 L 32.207031 45.023438 C 32.207031 44.738281 32.441406 44.503906 32.734375 44.503906 C 33.023438 44.503906 33.257812 44.738281 33.257812 45.023438 Z M 33.257812 45.023438 " fill-opacity="1" fill-rule="nonzero"/></g><g clip-path="url(#128f827fc3)"><path fill="#ecab2c" d="M 35.8125 44.765625 L 35.8125 47.34375 C 35.472656 47.394531 35.121094 47.4375 34.757812 47.46875 L 34.757812 44.765625 C 34.757812 44.476562 34.996094 44.242188 35.285156 44.242188 C 35.574219 44.242188 35.8125 44.476562 35.8125 44.765625 Z M 35.8125 44.765625 " fill-opacity="1" fill-rule="nonzero"/></g><g clip-path="url(#47c41ccd0a)"><path fill="#d78e0c" d="M 28.15625 44.390625 L 28.15625 47.054688 C 27.773438 46.960938 27.421875 46.855469 27.101562 46.742188 L 27.101562 44.390625 C 27.101562 44.101562 27.339844 43.867188 27.628906 43.867188 C 27.917969 43.867188 28.15625 44.101562 28.15625 44.390625 Z M 28.15625 44.390625 " fill-opacity="1" fill-rule="nonzero"/></g><g clip-path="url(#c1a2446776)"><path fill="#d78e0c" d="M 30.707031 44.699219 L 30.707031 47.46875 C 30.34375 47.4375 29.992188 47.394531 29.65625 47.34375 L 29.65625 44.699219 C 29.65625 44.410156 29.890625 44.175781 30.179688 44.175781 C 30.472656 44.175781 30.707031 44.410156 30.707031 44.699219 Z M 30.707031 44.699219 " fill-opacity="1" fill-rule="nonzero"/></g><g clip-path="url(#e76c84f290)"><path fill="#d78e0c" d="M 33.257812 45.023438 L 33.257812 47.550781 C 33.085938 47.554688 32.910156 47.558594 32.734375 47.558594 C 32.554688 47.558594 32.378906 47.554688 32.207031 47.550781 L 32.207031 45.023438 C 32.207031 44.738281 32.441406 44.503906 32.734375 44.503906 C 33.023438 44.503906 33.257812 44.738281 33.257812 45.023438 Z M 33.257812 45.023438 " fill-opacity="1" fill-rule="nonzero"/></g><g clip-path="url(#57f540313f)"><path fill="#d78e0c" d="M 35.8125 44.765625 L 35.8125 47.34375 C 35.472656 47.394531 35.121094 47.4375 34.757812 47.46875 L 34.757812 44.765625 C 34.757812 44.476562 34.996094 44.242188 35.285156 44.242188 C 35.574219 44.242188 35.8125 44.476562 35.8125 44.765625 Z M 35.8125 44.765625 " fill-opacity="1" fill-rule="nonzero"/></g><path fill="#ffc864" d="M 40.390625 42.492188 C 40.390625 42.65625 40.339844 42.824219 40.242188 42.984375 C 40.144531 43.148438 40 43.308594 39.808594 43.460938 C 39.613281 43.613281 39.378906 43.761719 39.097656 43.898438 C 38.820312 44.039062 38.503906 44.164062 38.148438 44.28125 C 37.792969 44.398438 37.40625 44.503906 36.988281 44.597656 C 36.570312 44.691406 36.128906 44.769531 35.664062 44.832031 C 35.199219 44.894531 34.71875 44.945312 34.226562 44.976562 C 33.734375 45.007812 33.234375 45.023438 32.734375 45.023438 C 32.230469 45.023438 31.734375 45.007812 31.238281 44.976562 C 30.746094 44.945312 30.269531 44.894531 29.804688 44.832031 C 29.339844 44.769531 28.898438 44.691406 28.480469 44.597656 C 28.0625 44.503906 27.675781 44.398438 27.320312 44.28125 C 26.964844 44.164062 26.648438 44.039062 26.367188 43.898438 C 26.089844 43.761719 25.851562 43.613281 25.660156 43.460938 C 25.46875 43.308594 25.320312 43.148438 25.222656 42.984375 C 25.125 42.824219 25.078125 42.65625 25.078125 42.492188 C 25.078125 42.324219 25.125 42.160156 25.222656 41.996094 C 25.320312 41.832031 25.46875 41.675781 25.660156 41.523438 C 25.851562 41.367188 26.089844 41.222656 26.367188 41.082031 C 26.648438 40.945312 26.964844 40.816406 27.320312 40.699219 C 27.675781 40.582031 28.0625 40.476562 28.480469 40.386719 C 28.898438 40.292969 29.339844 40.214844 29.804688 40.152344 C 30.269531 40.085938 30.746094 40.039062 31.238281 40.007812 C 31.734375 39.972656 32.230469 39.957031 32.734375 39.957031 C 33.234375 39.957031 33.734375 39.972656 34.226562 40.007812 C 34.71875 40.039062 35.199219 40.085938 35.664062 40.152344 C 36.128906 40.214844 36.570312 40.292969 36.988281 40.386719 C 37.40625 40.476562 37.792969 40.582031 38.148438 40.699219 C 38.503906 40.816406 38.820312 40.945312 39.097656 41.082031 C 39.378906 41.222656 39.613281 41.367188 39.808594 41.523438 C 40 41.675781 40.144531 41.832031 40.242188 41.996094 C 40.339844 42.160156 40.390625 42.324219 40.390625 42.492188 Z M 40.390625 42.492188 " fill-opacity="1" fill-rule="nonzero"/><path fill="#e8b65b" d="M 40.390625 42.492188 C 40.390625 43.320312 39.191406 44.054688 37.339844 44.515625 C 36.417969 43.300781 35.855469 41.800781 35.8125 40.171875 C 38.507812 40.5625 40.390625 41.453125 40.390625 42.492188 Z M 40.390625 42.492188 " fill-opacity="1" fill-rule="nonzero"/><path fill="#e8b65b" d="M 40.390625 42.492188 C 40.390625 43.320312 39.191406 44.054688 37.339844 44.515625 C 36.417969 43.300781 35.855469 41.800781 35.8125 40.171875 C 38.507812 40.5625 40.390625 41.453125 40.390625 42.492188 Z M 40.390625 42.492188 " fill-opacity="1" fill-rule="nonzero"/><g clip-path="url(#7f18e4e98f)"><path fill="#ecab2c" d="M 30.191406 43.132812 C 25.960938 43.132812 22.535156 41.996094 22.535156 40.597656 L 22.535156 38.066406 L 37.847656 38.066406 L 37.847656 40.597656 C 37.847656 41.996094 34.417969 43.132812 30.191406 43.132812 " fill-opacity="1" fill-rule="nonzero"/><path fill="#ecab2c" d="M 30.191406 43.132812 C 25.960938 43.132812 22.535156 41.996094 22.535156 40.597656 L 22.535156 38.066406 L 37.847656 38.066406 L 37.847656 40.597656 C 37.847656 41.996094 34.417969 43.132812 30.191406 43.132812 Z M 30.191406 43.132812 " fill-opacity="1" fill-rule="nonzero"/></g><path fill="#d78e0c" d="M 37.847656 38.066406 L 37.847656 40.597656 C 37.847656 41.203125 37.210938 41.757812 36.144531 42.191406 C 35.925781 41.484375 35.808594 40.734375 35.808594 39.957031 C 35.808594 39.304688 35.890625 38.671875 36.046875 38.066406 Z M 37.847656 38.066406 " fill-opacity="1" fill-rule="nonzero"/><path fill="#d78e0c" d="M 35.820312 39.964844 L 35.820312 42.316406 C 35.5 42.429688 35.148438 42.535156 34.769531 42.628906 L 34.769531 39.964844 C 34.769531 39.675781 35.003906 39.441406 35.296875 39.441406 C 35.585938 39.441406 35.820312 39.675781 35.820312 39.964844 Z M 35.820312 39.964844 " fill-opacity="1" fill-rule="nonzero"/><path fill="#ecab2c" d="M 25.613281 39.964844 L 25.613281 42.628906 C 25.234375 42.535156 24.882812 42.429688 24.5625 42.316406 L 24.5625 39.964844 C 24.5625 39.675781 24.796875 39.441406 25.085938 39.441406 C 25.378906 39.441406 25.613281 39.675781 25.613281 39.964844 Z M 25.613281 39.964844 " fill-opacity="1" fill-rule="nonzero"/><path fill="#ecab2c" d="M 28.164062 40.273438 L 28.164062 43.042969 C 27.804688 43.007812 27.453125 42.96875 27.113281 42.917969 L 27.113281 40.273438 C 27.113281 39.984375 27.347656 39.75 27.640625 39.75 C 27.929688 39.75 28.164062 39.984375 28.164062 40.273438 Z M 28.164062 40.273438 " fill-opacity="1" fill-rule="nonzero"/><path fill="#ecab2c" d="M 30.714844 40.597656 L 30.714844 43.125 C 30.542969 43.128906 30.367188 43.132812 30.191406 43.132812 C 30.015625 43.132812 29.839844 43.128906 29.664062 43.125 L 29.664062 40.597656 C 29.664062 40.308594 29.902344 40.078125 30.191406 40.078125 C 30.480469 40.078125 30.714844 40.308594 30.714844 40.597656 Z M 30.714844 40.597656 " fill-opacity="1" fill-rule="nonzero"/><path fill="#ecab2c" d="M 33.269531 40.335938 L 33.269531 42.917969 C 32.929688 42.96875 32.578125 43.007812 32.214844 43.042969 L 32.214844 40.335938 C 32.214844 40.046875 32.453125 39.816406 32.742188 39.816406 C 33.035156 39.816406 33.269531 40.050781 33.269531 40.335938 Z M 33.269531 40.335938 " fill-opacity="1" fill-rule="nonzero"/><path fill="#d78e0c" d="M 25.613281 39.964844 L 25.613281 42.628906 C 25.234375 42.535156 24.882812 42.429688 24.5625 42.316406 L 24.5625 39.964844 C 24.5625 39.675781 24.796875 39.441406 25.085938 39.441406 C 25.378906 39.441406 25.613281 39.675781 25.613281 39.964844 Z M 25.613281 39.964844 " fill-opacity="1" fill-rule="nonzero"/><path fill="#d78e0c" d="M 28.164062 40.273438 L 28.164062 43.042969 C 27.804688 43.007812 27.453125 42.96875 27.113281 42.917969 L 27.113281 40.273438 C 27.113281 39.984375 27.347656 39.75 27.640625 39.75 C 27.929688 39.75 28.164062 39.984375 28.164062 40.273438 Z M 28.164062 40.273438 " fill-opacity="1" fill-rule="nonzero"/><path fill="#d78e0c" d="M 30.714844 40.597656 L 30.714844 43.125 C 30.542969 43.128906 30.367188 43.132812 30.191406 43.132812 C 30.015625 43.132812 29.839844 43.128906 29.664062 43.125 L 29.664062 40.597656 C 29.664062 40.308594 29.902344 40.078125 30.191406 40.078125 C 30.480469 40.078125 30.714844 40.308594 30.714844 40.597656 Z M 30.714844 40.597656 " fill-opacity="1" fill-rule="nonzero"/><path fill="#d78e0c" d="M 33.269531 40.335938 L 33.269531 42.917969 C 32.929688 42.96875 32.578125 43.007812 32.214844 43.042969 L 32.214844 40.335938 C 32.214844 40.046875 32.453125 39.816406 32.742188 39.816406 C 33.035156 39.816406 33.269531 40.050781 33.269531 40.335938 Z M 33.269531 40.335938 " fill-opacity="1" fill-rule="nonzero"/><g clip-path="url(#ecc66709d4)"><path fill="#ffc864" d="M 37.847656 38.066406 C 37.847656 38.230469 37.796875 38.394531 37.699219 38.558594 C 37.601562 38.722656 37.457031 38.878906 37.265625 39.035156 C 37.070312 39.1875 36.835938 39.332031 36.558594 39.472656 C 36.277344 39.609375 35.960938 39.738281 35.605469 39.855469 C 35.25 39.972656 34.863281 40.078125 34.445312 40.171875 C 34.027344 40.265625 33.585938 40.339844 33.121094 40.40625 C 32.65625 40.46875 32.175781 40.515625 31.683594 40.550781 C 31.191406 40.582031 30.695312 40.597656 30.191406 40.597656 C 29.6875 40.597656 29.191406 40.582031 28.695312 40.550781 C 28.203125 40.515625 27.726562 40.46875 27.261719 40.40625 C 26.796875 40.339844 26.355469 40.265625 25.9375 40.171875 C 25.519531 40.078125 25.132812 39.972656 24.777344 39.855469 C 24.421875 39.738281 24.105469 39.609375 23.824219 39.472656 C 23.546875 39.332031 23.308594 39.1875 23.117188 39.035156 C 22.925781 38.878906 22.78125 38.722656 22.683594 38.558594 C 22.582031 38.394531 22.535156 38.230469 22.535156 38.066406 C 22.535156 37.898438 22.582031 37.734375 22.683594 37.570312 C 22.78125 37.40625 22.925781 37.25 23.117188 37.09375 C 23.308594 36.941406 23.546875 36.796875 23.824219 36.65625 C 24.105469 36.519531 24.421875 36.390625 24.777344 36.273438 C 25.132812 36.15625 25.519531 36.050781 25.9375 35.957031 C 26.355469 35.867188 26.796875 35.789062 27.261719 35.722656 C 27.726562 35.660156 28.203125 35.613281 28.695312 35.578125 C 29.191406 35.546875 29.6875 35.53125 30.191406 35.53125 C 30.695312 35.53125 31.191406 35.546875 31.683594 35.578125 C 32.175781 35.613281 32.65625 35.660156 33.121094 35.722656 C 33.585938 35.789062 34.027344 35.867188 34.445312 35.957031 C 34.863281 36.050781 35.25 36.15625 35.605469 36.273438 C 35.960938 36.390625 36.277344 36.519531 36.558594 36.65625 C 36.835938 36.796875 37.070312 36.941406 37.265625 37.09375 C 37.457031 37.25 37.601562 37.40625 37.699219 37.570312 C 37.796875 37.734375 37.847656 37.898438 37.847656 38.066406 Z M 37.847656 38.066406 " fill-opacity="1" fill-rule="nonzero"/></g><path fill="#ffc864" d="M 37.847656 38.066406 C 37.847656 38.730469 37.074219 39.332031 35.8125 39.785156 C 35.824219 39.191406 35.90625 38.617188 36.046875 38.066406 Z M 37.847656 38.066406 " fill-opacity="1" fill-rule="nonzero"/><path fill="#e8b65b" d="M 37.847656 38.066406 C 37.847656 38.730469 37.074219 39.332031 35.8125 39.785156 C 35.824219 39.191406 35.90625 38.617188 36.046875 38.066406 Z M 37.847656 38.066406 " fill-opacity="1" fill-rule="nonzero"/><path fill="#ecab2c" d="M 32.734375 39.304688 C 28.503906 39.304688 25.078125 38.171875 25.078125 36.773438 L 25.078125 34.238281 L 40.390625 34.238281 L 40.390625 36.773438 C 40.390625 38.171875 36.960938 39.304688 32.734375 39.304688 " fill-opacity="1" fill-rule="nonzero"/><path fill="#ecab2c" d="M 32.734375 39.304688 C 28.503906 39.304688 25.078125 38.171875 25.078125 36.773438 L 25.078125 34.238281 L 40.390625 34.238281 L 40.390625 36.773438 C 40.390625 38.171875 36.960938 39.304688 32.734375 39.304688 Z M 32.734375 39.304688 " fill-opacity="1" fill-rule="nonzero"/><path fill="#d78e0c" d="M 40.390625 34.238281 L 40.390625 36.773438 C 40.390625 37.800781 38.527344 38.691406 35.859375 39.085938 C 36.082031 37.15625 37.027344 35.449219 38.421875 34.238281 Z M 40.390625 34.238281 " fill-opacity="1" fill-rule="nonzero"/><path fill="#d78e0c" d="M 38.363281 36.136719 L 38.363281 38.488281 C 38.042969 38.605469 37.691406 38.707031 37.3125 38.804688 L 37.3125 36.136719 C 37.3125 35.851562 37.546875 35.617188 37.835938 35.617188 C 38.128906 35.617188 38.363281 35.851562 38.363281 36.136719 Z M 38.363281 36.136719 " fill-opacity="1" fill-rule="nonzero"/><path fill="#ecab2c" d="M 28.15625 36.136719 L 28.15625 38.804688 C 27.773438 38.707031 27.421875 38.605469 27.101562 38.488281 L 27.101562 36.136719 C 27.101562 35.851562 27.339844 35.617188 27.628906 35.617188 C 27.917969 35.617188 28.15625 35.851562 28.15625 36.136719 Z M 28.15625 36.136719 " fill-opacity="1" fill-rule="nonzero"/><path fill="#ecab2c" d="M 30.707031 36.445312 L 30.707031 39.214844 C 30.34375 39.183594 29.992188 39.140625 29.65625 39.089844 L 29.65625 36.445312 C 29.65625 36.15625 29.890625 35.921875 30.179688 35.921875 C 30.472656 35.921875 30.707031 36.15625 30.707031 36.445312 Z M 30.707031 36.445312 " fill-opacity="1" fill-rule="nonzero"/><path fill="#ecab2c" d="M 33.257812 36.773438 L 33.257812 39.300781 C 33.085938 39.304688 32.910156 39.304688 32.734375 39.304688 C 32.554688 39.304688 32.378906 39.304688 32.207031 39.300781 L 32.207031 36.773438 C 32.207031 36.484375 32.441406 36.25 32.734375 36.25 C 33.023438 36.25 33.257812 36.484375 33.257812 36.773438 Z M 33.257812 36.773438 " fill-opacity="1" fill-rule="nonzero"/><path fill="#ecab2c" d="M 35.8125 36.511719 L 35.8125 39.089844 C 35.472656 39.140625 35.121094 39.183594 34.757812 39.214844 L 34.757812 36.511719 C 34.757812 36.222656 34.996094 35.988281 35.285156 35.988281 C 35.574219 35.988281 35.8125 36.222656 35.8125 36.511719 Z M 35.8125 36.511719 " fill-opacity="1" fill-rule="nonzero"/><path fill="#d78e0c" d="M 28.15625 36.136719 L 28.15625 38.804688 C 27.773438 38.707031 27.421875 38.605469 27.101562 38.488281 L 27.101562 36.136719 C 27.101562 35.851562 27.339844 35.617188 27.628906 35.617188 C 27.917969 35.617188 28.15625 35.851562 28.15625 36.136719 Z M 28.15625 36.136719 " fill-opacity="1" fill-rule="nonzero"/><path fill="#d78e0c" d="M 30.707031 36.445312 L 30.707031 39.214844 C 30.34375 39.183594 29.992188 39.140625 29.65625 39.089844 L 29.65625 36.445312 C 29.65625 36.15625 29.890625 35.921875 30.179688 35.921875 C 30.472656 35.921875 30.707031 36.15625 30.707031 36.445312 Z M 30.707031 36.445312 " fill-opacity="1" fill-rule="nonzero"/><path fill="#d78e0c" d="M 33.257812 36.773438 L 33.257812 39.300781 C 33.085938 39.304688 32.910156 39.304688 32.734375 39.304688 C 32.554688 39.304688 32.378906 39.304688 32.207031 39.300781 L 32.207031 36.773438 C 32.207031 36.484375 32.441406 36.25 32.734375 36.25 C 33.023438 36.25 33.257812 36.484375 33.257812 36.773438 Z M 33.257812 36.773438 " fill-opacity="1" fill-rule="nonzero"/><path fill="#d78e0c" d="M 35.8125 36.511719 L 35.8125 39.089844 C 35.472656 39.140625 35.121094 39.183594 34.757812 39.214844 L 34.757812 36.511719 C 34.757812 36.222656 34.996094 35.988281 35.285156 35.988281 C 35.574219 35.988281 35.8125 36.222656 35.8125 36.511719 Z M 35.8125 36.511719 " fill-opacity="1" fill-rule="nonzero"/><path fill="#ffc864" d="M 40.390625 34.238281 C 40.390625 34.40625 40.339844 34.570312 40.242188 34.730469 C 40.144531 34.894531 40 35.054688 39.804688 35.207031 C 39.613281 35.363281 39.378906 35.507812 39.097656 35.644531 C 38.820312 35.785156 38.503906 35.910156 38.148438 36.03125 C 37.792969 36.148438 37.40625 36.253906 36.988281 36.34375 C 36.570312 36.4375 36.128906 36.515625 35.664062 36.578125 C 35.199219 36.640625 34.71875 36.691406 34.226562 36.722656 C 33.734375 36.753906 33.234375 36.773438 32.734375 36.773438 C 32.230469 36.773438 31.730469 36.753906 31.238281 36.722656 C 30.746094 36.691406 30.265625 36.640625 29.804688 36.578125 C 29.339844 36.515625 28.898438 36.4375 28.480469 36.34375 C 28.0625 36.253906 27.675781 36.148438 27.320312 36.03125 C 26.964844 35.910156 26.644531 35.785156 26.367188 35.644531 C 26.085938 35.507812 25.851562 35.363281 25.660156 35.207031 C 25.46875 35.054688 25.320312 34.894531 25.222656 34.730469 C 25.125 34.570312 25.078125 34.40625 25.078125 34.238281 C 25.078125 34.070312 25.125 33.90625 25.222656 33.742188 C 25.320312 33.582031 25.46875 33.421875 25.660156 33.269531 C 25.851562 33.113281 26.085938 32.96875 26.367188 32.832031 C 26.644531 32.691406 26.964844 32.5625 27.320312 32.445312 C 27.675781 32.328125 28.0625 32.222656 28.480469 32.132812 C 28.898438 32.039062 29.339844 31.960938 29.804688 31.898438 C 30.265625 31.832031 30.746094 31.785156 31.238281 31.753906 C 31.730469 31.722656 32.230469 31.703125 32.734375 31.703125 C 33.234375 31.703125 33.734375 31.722656 34.226562 31.753906 C 34.71875 31.785156 35.199219 31.832031 35.664062 31.898438 C 36.128906 31.960938 36.570312 32.039062 36.988281 32.132812 C 37.40625 32.222656 37.792969 32.328125 38.148438 32.445312 C 38.503906 32.5625 38.820312 32.691406 39.097656 32.832031 C 39.378906 32.96875 39.613281 33.113281 39.804688 33.269531 C 40 33.421875 40.144531 33.582031 40.242188 33.742188 C 40.339844 33.90625 40.390625 34.070312 40.390625 34.238281 Z M 40.390625 34.238281 " fill-opacity="1" fill-rule="nonzero"/><path fill="#e8b65b" d="M 40.390625 34.238281 C 40.390625 35.15625 38.910156 35.960938 36.695312 36.40625 C 37.402344 35.082031 38.488281 33.988281 39.816406 33.273438 C 40.1875 33.570312 40.390625 33.898438 40.390625 34.238281 Z M 40.390625 34.238281 " fill-opacity="1" fill-rule="nonzero"/><path fill="#e8b65b" d="M 40.390625 34.238281 C 40.390625 35.15625 38.910156 35.960938 36.695312 36.40625 C 37.402344 35.082031 38.488281 33.988281 39.816406 33.273438 C 40.1875 33.570312 40.390625 33.898438 40.390625 34.238281 Z M 40.390625 34.238281 " fill-opacity="1" fill-rule="nonzero"/><g clip-path="url(#c4dcab254e)"><path fill="#ecab2c" d="M 30.179688 34.910156 C 25.953125 34.910156 22.523438 33.777344 22.523438 32.378906 L 22.523438 29.84375 L 37.835938 29.84375 L 37.835938 32.378906 C 37.835938 33.777344 34.410156 34.910156 30.179688 34.910156 " fill-opacity="1" fill-rule="nonzero"/><path fill="#ecab2c" d="M 30.179688 34.910156 C 25.953125 34.910156 22.523438 33.777344 22.523438 32.378906 L 22.523438 29.84375 L 37.835938 29.84375 L 37.835938 32.378906 C 37.835938 33.777344 34.410156 34.910156 30.179688 34.910156 Z M 30.179688 34.910156 " fill-opacity="1" fill-rule="nonzero"/></g><path fill="#d78e0c" d="M 35.8125 31.742188 L 35.8125 34.09375 C 35.492188 34.210938 35.136719 34.316406 34.757812 34.410156 L 34.757812 31.742188 C 34.757812 31.457031 34.996094 31.222656 35.285156 31.222656 C 35.574219 31.222656 35.8125 31.457031 35.8125 31.742188 Z M 35.8125 31.742188 " fill-opacity="1" fill-rule="nonzero"/><path fill="#ecab2c" d="M 25.601562 31.742188 L 25.601562 34.410156 C 25.222656 34.316406 24.871094 34.210938 24.550781 34.09375 L 24.550781 31.742188 C 24.550781 31.457031 24.785156 31.222656 25.078125 31.222656 C 25.367188 31.222656 25.601562 31.457031 25.601562 31.742188 Z M 25.601562 31.742188 " fill-opacity="1" fill-rule="nonzero"/><path fill="#ecab2c" d="M 28.15625 32.050781 L 28.15625 34.820312 C 27.792969 34.789062 27.441406 34.746094 27.101562 34.699219 L 27.101562 32.050781 C 27.101562 31.761719 27.339844 31.53125 27.628906 31.53125 C 27.917969 31.53125 28.15625 31.761719 28.15625 32.050781 Z M 28.15625 32.050781 " fill-opacity="1" fill-rule="nonzero"/><path fill="#ecab2c" d="M 30.707031 32.378906 L 30.707031 34.90625 C 30.535156 34.910156 30.359375 34.910156 30.179688 34.910156 C 30.003906 34.910156 29.828125 34.910156 29.65625 34.90625 L 29.65625 32.378906 C 29.65625 32.089844 29.890625 31.855469 30.179688 31.855469 C 30.472656 31.855469 30.707031 32.089844 30.707031 32.378906 Z M 30.707031 32.378906 " fill-opacity="1" fill-rule="nonzero"/><path fill="#ecab2c" d="M 33.257812 32.117188 L 33.257812 34.699219 C 32.921875 34.746094 32.570312 34.789062 32.207031 34.820312 L 32.207031 32.117188 C 32.207031 31.828125 32.441406 31.59375 32.734375 31.59375 C 33.023438 31.59375 33.257812 31.828125 33.257812 32.117188 Z M 33.257812 32.117188 " fill-opacity="1" fill-rule="nonzero"/><path fill="#d78e0c" d="M 25.601562 31.742188 L 25.601562 34.410156 C 25.222656 34.316406 24.871094 34.210938 24.550781 34.09375 L 24.550781 31.742188 C 24.550781 31.457031 24.785156 31.222656 25.078125 31.222656 C 25.367188 31.222656 25.601562 31.457031 25.601562 31.742188 Z M 25.601562 31.742188 " fill-opacity="1" fill-rule="nonzero"/><path fill="#d78e0c" d="M 28.15625 32.050781 L 28.15625 34.820312 C 27.792969 34.789062 27.441406 34.746094 27.101562 34.699219 L 27.101562 32.050781 C 27.101562 31.761719 27.339844 31.53125 27.628906 31.53125 C 27.917969 31.53125 28.15625 31.761719 28.15625 32.050781 Z M 28.15625 32.050781 " fill-opacity="1" fill-rule="nonzero"/><path fill="#d78e0c" d="M 30.707031 32.378906 L 30.707031 34.90625 C 30.535156 34.910156 30.359375 34.910156 30.179688 34.910156 C 30.003906 34.910156 29.828125 34.910156 29.65625 34.90625 L 29.65625 32.378906 C 29.65625 32.089844 29.890625 31.855469 30.179688 31.855469 C 30.472656 31.855469 30.707031 32.089844 30.707031 32.378906 Z M 30.707031 32.378906 " fill-opacity="1" fill-rule="nonzero"/><path fill="#d78e0c" d="M 33.257812 32.117188 L 33.257812 34.699219 C 32.921875 34.746094 32.570312 34.789062 32.207031 34.820312 L 32.207031 32.117188 C 32.207031 31.828125 32.441406 31.59375 32.734375 31.59375 C 33.023438 31.59375 33.257812 31.828125 33.257812 32.117188 Z M 33.257812 32.117188 " fill-opacity="1" fill-rule="nonzero"/><g clip-path="url(#a4a2711a10)"><path fill="#ffc864" d="M 37.835938 29.84375 C 37.835938 30.011719 37.789062 30.175781 37.691406 30.339844 C 37.59375 30.5 37.445312 30.660156 37.253906 30.8125 C 37.0625 30.96875 36.828125 31.113281 36.546875 31.25 C 36.269531 31.390625 35.949219 31.519531 35.59375 31.636719 C 35.238281 31.753906 34.851562 31.859375 34.433594 31.949219 C 34.015625 32.042969 33.574219 32.121094 33.109375 32.183594 C 32.648438 32.25 32.167969 32.296875 31.675781 32.328125 C 31.183594 32.363281 30.683594 32.378906 30.179688 32.378906 C 29.679688 32.378906 29.179688 32.363281 28.6875 32.328125 C 28.195312 32.296875 27.714844 32.25 27.25 32.183594 C 26.785156 32.121094 26.34375 32.042969 25.925781 31.949219 C 25.507812 31.859375 25.121094 31.753906 24.765625 31.636719 C 24.410156 31.519531 24.09375 31.390625 23.816406 31.25 C 23.535156 31.113281 23.300781 30.96875 23.109375 30.8125 C 22.914062 30.660156 22.769531 30.5 22.671875 30.339844 C 22.574219 30.175781 22.523438 30.011719 22.523438 29.84375 C 22.523438 29.679688 22.574219 29.511719 22.671875 29.351562 C 22.769531 29.1875 22.914062 29.027344 23.109375 28.875 C 23.300781 28.722656 23.535156 28.574219 23.816406 28.4375 C 24.09375 28.296875 24.410156 28.171875 24.765625 28.054688 C 25.121094 27.933594 25.507812 27.832031 25.925781 27.738281 C 26.34375 27.644531 26.785156 27.566406 27.25 27.503906 C 27.714844 27.441406 28.195312 27.390625 28.6875 27.359375 C 29.179688 27.328125 29.679688 27.3125 30.179688 27.3125 C 30.683594 27.3125 31.183594 27.328125 31.675781 27.359375 C 32.167969 27.390625 32.648438 27.441406 33.109375 27.503906 C 33.574219 27.566406 34.015625 27.644531 34.433594 27.738281 C 34.851562 27.832031 35.238281 27.933594 35.59375 28.054688 C 35.949219 28.171875 36.269531 28.296875 36.546875 28.4375 C 36.828125 28.574219 37.0625 28.722656 37.253906 28.875 C 37.445312 29.027344 37.59375 29.1875 37.691406 29.351562 C 37.789062 29.511719 37.835938 29.679688 37.835938 29.84375 Z M 37.835938 29.84375 " fill-opacity="1" fill-rule="nonzero"/></g><g clip-path="url(#9f9fd6777d)"><path fill="#ecab2c" d="M 52.511719 39.957031 C 52.511719 40.457031 52.460938 40.953125 52.363281 41.441406 C 52.265625 41.929688 52.121094 42.40625 51.929688 42.867188 C 51.738281 43.328125 51.5 43.765625 51.222656 44.179688 C 50.941406 44.59375 50.625 44.980469 50.269531 45.332031 C 49.914062 45.683594 49.527344 46 49.109375 46.277344 C 48.691406 46.554688 48.25 46.789062 47.785156 46.980469 C 47.320312 47.171875 46.84375 47.316406 46.347656 47.414062 C 45.855469 47.507812 45.359375 47.558594 44.855469 47.558594 C 44.351562 47.558594 43.855469 47.507812 43.363281 47.414062 C 42.867188 47.316406 42.390625 47.171875 41.925781 46.980469 C 41.460938 46.789062 41.019531 46.554688 40.601562 46.277344 C 40.183594 46 39.796875 45.683594 39.441406 45.332031 C 39.085938 44.980469 38.769531 44.59375 38.488281 44.179688 C 38.210938 43.765625 37.972656 43.328125 37.78125 42.867188 C 37.589844 42.40625 37.445312 41.929688 37.347656 41.441406 C 37.25 40.953125 37.199219 40.457031 37.199219 39.957031 C 37.199219 39.457031 37.25 38.964844 37.347656 38.476562 C 37.445312 37.984375 37.589844 37.511719 37.78125 37.050781 C 37.972656 36.589844 38.210938 36.148438 38.488281 35.734375 C 38.769531 35.320312 39.085938 34.9375 39.441406 34.582031 C 39.796875 34.230469 40.183594 33.914062 40.601562 33.636719 C 41.019531 33.359375 41.460938 33.128906 41.925781 32.9375 C 42.390625 32.746094 42.867188 32.601562 43.363281 32.503906 C 43.855469 32.40625 44.351562 32.359375 44.855469 32.359375 C 45.359375 32.359375 45.855469 32.40625 46.347656 32.503906 C 46.84375 32.601562 47.320312 32.746094 47.785156 32.9375 C 48.25 33.128906 48.691406 33.359375 49.109375 33.636719 C 49.527344 33.914062 49.914062 34.230469 50.269531 34.582031 C 50.625 34.9375 50.941406 35.320312 51.222656 35.734375 C 51.5 36.148438 51.738281 36.589844 51.929688 37.050781 C 52.121094 37.511719 52.265625 37.984375 52.363281 38.476562 C 52.460938 38.964844 52.511719 39.457031 52.511719 39.957031 Z M 52.511719 39.957031 " fill-opacity="1" fill-rule="nonzero"/></g><path fill="#ffc864" d="M 49.960938 39.957031 C 49.960938 40.289062 49.925781 40.621094 49.863281 40.945312 C 49.796875 41.273438 49.699219 41.589844 49.570312 41.898438 C 49.441406 42.203125 49.285156 42.496094 49.097656 42.773438 C 48.914062 43.050781 48.703125 43.304688 48.464844 43.539062 C 48.226562 43.777344 47.96875 43.984375 47.691406 44.171875 C 47.414062 44.355469 47.117188 44.511719 46.808594 44.640625 C 46.5 44.765625 46.179688 44.863281 45.851562 44.925781 C 45.523438 44.992188 45.191406 45.023438 44.855469 45.023438 C 44.519531 45.023438 44.1875 44.992188 43.859375 44.925781 C 43.53125 44.863281 43.210938 44.765625 42.902344 44.640625 C 42.59375 44.511719 42.296875 44.355469 42.019531 44.171875 C 41.742188 43.984375 41.484375 43.777344 41.246094 43.539062 C 41.007812 43.304688 40.796875 43.050781 40.613281 42.773438 C 40.425781 42.496094 40.269531 42.203125 40.140625 41.898438 C 40.011719 41.589844 39.914062 41.273438 39.847656 40.945312 C 39.785156 40.621094 39.75 40.289062 39.75 39.957031 C 39.75 39.625 39.785156 39.296875 39.847656 38.96875 C 39.914062 38.644531 40.011719 38.328125 40.140625 38.019531 C 40.269531 37.710938 40.425781 37.417969 40.613281 37.144531 C 40.796875 36.867188 41.007812 36.609375 41.246094 36.375 C 41.484375 36.140625 41.742188 35.929688 42.019531 35.746094 C 42.296875 35.558594 42.59375 35.402344 42.902344 35.277344 C 43.210938 35.148438 43.53125 35.054688 43.859375 34.988281 C 44.1875 34.921875 44.519531 34.890625 44.855469 34.890625 C 45.191406 34.890625 45.523438 34.921875 45.851562 34.988281 C 46.179688 35.054688 46.5 35.148438 46.808594 35.277344 C 47.117188 35.402344 47.414062 35.558594 47.691406 35.746094 C 47.96875 35.929688 48.226562 36.140625 48.464844 36.375 C 48.703125 36.609375 48.914062 36.867188 49.097656 37.144531 C 49.285156 37.417969 49.441406 37.710938 49.570312 38.019531 C 49.699219 38.328125 49.796875 38.644531 49.863281 38.96875 C 49.925781 39.296875 49.960938 39.625 49.960938 39.957031 Z M 49.960938 39.957031 " fill-opacity="1" fill-rule="nonzero"/><path fill="#ecab2c" d="M 46.929688 41.136719 L 46.929688 38.820312 L 44.90625 37.660156 L 42.886719 38.820312 L 42.886719 41.136719 L 44.90625 42.296875 Z M 46.929688 41.136719 " fill-opacity="1" fill-rule="nonzero"/><g fill="#000000" fill-opacity="1"><g transform="translate(7.500001, 66.399992)"><g><path d="M 2.578125 0 L 2.21875 0 L 1.953125 -0.78125 L 0.734375 -0.78125 L 0.46875 0 L 0.109375 0 L 1.109375 -2.859375 L 1.578125 -2.859375 Z M 1.3125 -2.515625 L 0.828125 -1.0625 L 1.859375 -1.0625 L 1.359375 -2.515625 Z M 1.3125 -2.515625 "/></g></g></g><g fill="#000000" fill-opacity="1"><g transform="translate(10.180974, 66.399992)"><g><path d="M 1.125 0.046875 C 0.945312 0.046875 0.789062 0.00390625 0.65625 -0.078125 C 0.53125 -0.160156 0.425781 -0.285156 0.34375 -0.453125 C 0.269531 -0.617188 0.234375 -0.828125 0.234375 -1.078125 C 0.234375 -1.328125 0.269531 -1.535156 0.34375 -1.703125 C 0.425781 -1.867188 0.535156 -1.992188 0.671875 -2.078125 C 0.816406 -2.160156 0.976562 -2.203125 1.15625 -2.203125 C 1.300781 -2.203125 1.429688 -2.171875 1.546875 -2.109375 C 1.660156 -2.054688 1.757812 -1.96875 1.84375 -1.84375 L 1.875 -1.859375 L 1.875 -3.015625 L 2.203125 -3.015625 L 2.203125 0 L 1.875 0 L 1.875 -0.3125 L 1.84375 -0.328125 C 1.769531 -0.210938 1.671875 -0.117188 1.546875 -0.046875 C 1.429688 0.015625 1.289062 0.046875 1.125 0.046875 Z M 1.21875 -0.25 C 1.414062 -0.25 1.570312 -0.316406 1.6875 -0.453125 C 1.8125 -0.585938 1.875 -0.796875 1.875 -1.078125 C 1.875 -1.359375 1.8125 -1.566406 1.6875 -1.703125 C 1.570312 -1.835938 1.414062 -1.90625 1.21875 -1.90625 C 1.007812 -1.90625 0.847656 -1.835938 0.734375 -1.703125 C 0.628906 -1.578125 0.578125 -1.367188 0.578125 -1.078125 C 0.578125 -0.523438 0.789062 -0.25 1.21875 -0.25 Z M 1.21875 -0.25 "/></g></g></g><g fill="#000000" fill-opacity="1"><g transform="translate(12.750733, 66.399992)"><g><path d="M 1.125 0.046875 C 0.945312 0.046875 0.789062 0.00390625 0.65625 -0.078125 C 0.53125 -0.160156 0.425781 -0.285156 0.34375 -0.453125 C 0.269531 -0.617188 0.234375 -0.828125 0.234375 -1.078125 C 0.234375 -1.328125 0.269531 -1.535156 0.34375 -1.703125 C 0.425781 -1.867188 0.535156 -1.992188 0.671875 -2.078125 C 0.816406 -2.160156 0.976562 -2.203125 1.15625 -2.203125 C 1.300781 -2.203125 1.429688 -2.171875 1.546875 -2.109375 C 1.660156 -2.054688 1.757812 -1.96875 1.84375 -1.84375 L 1.875 -1.859375 L 1.875 -3.015625 L 2.203125 -3.015625 L 2.203125 0 L 1.875 0 L 1.875 -0.3125 L 1.84375 -0.328125 C 1.769531 -0.210938 1.671875 -0.117188 1.546875 -0.046875 C 1.429688 0.015625 1.289062 0.046875 1.125 0.046875 Z M 1.21875 -0.25 C 1.414062 -0.25 1.570312 -0.316406 1.6875 -0.453125 C 1.8125 -0.585938 1.875 -0.796875 1.875 -1.078125 C 1.875 -1.359375 1.8125 -1.566406 1.6875 -1.703125 C 1.570312 -1.835938 1.414062 -1.90625 1.21875 -1.90625 C 1.007812 -1.90625 0.847656 -1.835938 0.734375 -1.703125 C 0.628906 -1.578125 0.578125 -1.367188 0.578125 -1.078125 C 0.578125 -0.523438 0.789062 -0.25 1.21875 -0.25 Z M 1.21875 -0.25 "/></g></g></g><g fill="#000000" fill-opacity="1"><g transform="translate(15.320492, 66.399992)"><g/></g></g><g fill="#000000" fill-opacity="1"><g transform="translate(16.300003, 66.399992)"><g><path d="M 0.890625 0.046875 C 0.679688 0.046875 0.515625 -0.0078125 0.390625 -0.125 C 0.273438 -0.238281 0.21875 -0.394531 0.21875 -0.59375 C 0.21875 -0.726562 0.242188 -0.835938 0.296875 -0.921875 C 0.347656 -1.015625 0.425781 -1.085938 0.53125 -1.140625 C 0.644531 -1.191406 0.789062 -1.234375 0.96875 -1.265625 C 1.125 -1.296875 1.242188 -1.328125 1.328125 -1.359375 C 1.410156 -1.390625 1.460938 -1.425781 1.484375 -1.46875 C 1.515625 -1.507812 1.53125 -1.554688 1.53125 -1.609375 C 1.53125 -1.710938 1.492188 -1.789062 1.421875 -1.84375 C 1.359375 -1.894531 1.253906 -1.921875 1.109375 -1.921875 C 0.972656 -1.921875 0.851562 -1.890625 0.75 -1.828125 C 0.65625 -1.773438 0.566406 -1.695312 0.484375 -1.59375 L 0.4375 -1.59375 L 0.28125 -1.8125 C 0.375 -1.925781 0.488281 -2.019531 0.625 -2.09375 C 0.769531 -2.164062 0.929688 -2.203125 1.109375 -2.203125 C 1.359375 -2.203125 1.546875 -2.144531 1.671875 -2.03125 C 1.796875 -1.914062 1.859375 -1.757812 1.859375 -1.5625 L 1.859375 -0.421875 C 1.859375 -0.304688 1.90625 -0.25 2 -0.25 C 2.039062 -0.25 2.078125 -0.253906 2.109375 -0.265625 L 2.125 -0.25 L 2.171875 -0.03125 C 2.140625 -0.0195312 2.101562 -0.0078125 2.0625 0 C 2.03125 0.0078125 1.992188 0.015625 1.953125 0.015625 C 1.835938 0.015625 1.75 -0.0078125 1.6875 -0.0625 C 1.625 -0.113281 1.585938 -0.191406 1.578125 -0.296875 L 1.53125 -0.296875 C 1.46875 -0.179688 1.382812 -0.09375 1.28125 -0.03125 C 1.175781 0.0195312 1.046875 0.046875 0.890625 0.046875 Z M 0.953125 -0.21875 C 1.078125 -0.21875 1.179688 -0.242188 1.265625 -0.296875 C 1.359375 -0.347656 1.425781 -0.425781 1.46875 -0.53125 C 1.519531 -0.632812 1.546875 -0.75 1.546875 -0.875 L 1.546875 -1.15625 L 1.5 -1.15625 C 1.457031 -1.125 1.398438 -1.097656 1.328125 -1.078125 C 1.265625 -1.054688 1.171875 -1.035156 1.046875 -1.015625 C 0.921875 -0.992188 0.820312 -0.960938 0.75 -0.921875 C 0.675781 -0.890625 0.625 -0.847656 0.59375 -0.796875 C 0.5625 -0.742188 0.546875 -0.675781 0.546875 -0.59375 C 0.546875 -0.46875 0.582031 -0.375 0.65625 -0.3125 C 0.726562 -0.25 0.828125 -0.21875 0.953125 -0.21875 Z M 0.953125 -0.21875 "/></g></g></g><g fill="#000000" fill-opacity="1"><g transform="translate(18.526348, 66.399992)"><g/></g></g><g fill="#000000" fill-opacity="1"><g transform="translate(19.505859, 66.399992)"><g><path d="M 0.859375 0.046875 C 0.703125 0.046875 0.582031 0.00390625 0.5 -0.078125 C 0.414062 -0.171875 0.375 -0.304688 0.375 -0.484375 L 0.375 -3.015625 L 0.6875 -3.015625 L 0.6875 -0.5 C 0.6875 -0.40625 0.703125 -0.335938 0.734375 -0.296875 C 0.773438 -0.265625 0.832031 -0.25 0.90625 -0.25 C 0.945312 -0.25 0.988281 -0.253906 1.03125 -0.265625 L 1.0625 -0.265625 L 1.09375 -0.015625 C 1.070312 0.00390625 1.039062 0.0195312 1 0.03125 C 0.957031 0.0390625 0.910156 0.046875 0.859375 0.046875 Z M 0.859375 0.046875 "/></g></g></g><g fill="#000000" fill-opacity="1"><g transform="translate(20.67659, 66.399992)"><g><path d="M 0.53125 -2.578125 C 0.46875 -2.578125 0.414062 -2.597656 0.375 -2.640625 C 0.332031 -2.679688 0.3125 -2.734375 0.3125 -2.796875 C 0.3125 -2.859375 0.332031 -2.910156 0.375 -2.953125 C 0.414062 -2.992188 0.46875 -3.015625 0.53125 -3.015625 C 0.601562 -3.015625 0.660156 -2.992188 0.703125 -2.953125 C 0.742188 -2.910156 0.765625 -2.859375 0.765625 -2.796875 C 0.765625 -2.734375 0.742188 -2.679688 0.703125 -2.640625 C 0.660156 -2.597656 0.601562 -2.578125 0.53125 -2.578125 Z M 0.375 0 L 0.375 -2.15625 L 0.6875 -2.15625 L 0.6875 0 Z M 0.375 0 "/></g></g></g><g fill="#000000" fill-opacity="1"><g transform="translate(21.743911, 66.399992)"><g><path d="M 1.453125 -0.34375 L 1.5625 -0.109375 C 1.507812 -0.0546875 1.441406 -0.0195312 1.359375 0 C 1.273438 0.03125 1.1875 0.046875 1.09375 0.046875 C 0.675781 0.046875 0.46875 -0.160156 0.46875 -0.578125 L 0.46875 -1.890625 L 0.09375 -1.890625 L 0.09375 -2.15625 L 0.46875 -2.15625 L 0.46875 -2.609375 L 0.796875 -2.671875 L 0.796875 -2.15625 L 1.484375 -2.15625 L 1.484375 -1.890625 L 0.796875 -1.890625 L 0.796875 -0.609375 C 0.796875 -0.367188 0.898438 -0.25 1.109375 -0.25 C 1.234375 -0.25 1.335938 -0.28125 1.421875 -0.34375 Z M 1.453125 -0.34375 "/></g></g></g><g fill="#000000" fill-opacity="1"><g transform="translate(23.382934, 66.399992)"><g><path d="M 1.453125 -0.34375 L 1.5625 -0.109375 C 1.507812 -0.0546875 1.441406 -0.0195312 1.359375 0 C 1.273438 0.03125 1.1875 0.046875 1.09375 0.046875 C 0.675781 0.046875 0.46875 -0.160156 0.46875 -0.578125 L 0.46875 -1.890625 L 0.09375 -1.890625 L 0.09375 -2.15625 L 0.46875 -2.15625 L 0.46875 -2.609375 L 0.796875 -2.671875 L 0.796875 -2.15625 L 1.484375 -2.15625 L 1.484375 -1.890625 L 0.796875 -1.890625 L 0.796875 -0.609375 C 0.796875 -0.367188 0.898438 -0.25 1.109375 -0.25 C 1.234375 -0.25 1.335938 -0.28125 1.421875 -0.34375 Z M 1.453125 -0.34375 "/></g></g></g><g fill="#000000" fill-opacity="1"><g transform="translate(25.021957, 66.399992)"><g><path d="M 0.859375 0.046875 C 0.703125 0.046875 0.582031 0.00390625 0.5 -0.078125 C 0.414062 -0.171875 0.375 -0.304688 0.375 -0.484375 L 0.375 -3.015625 L 0.6875 -3.015625 L 0.6875 -0.5 C 0.6875 -0.40625 0.703125 -0.335938 0.734375 -0.296875 C 0.773438 -0.265625 0.832031 -0.25 0.90625 -0.25 C 0.945312 -0.25 0.988281 -0.253906 1.03125 -0.265625 L 1.0625 -0.265625 L 1.09375 -0.015625 C 1.070312 0.00390625 1.039062 0.0195312 1 0.03125 C 0.957031 0.0390625 0.910156 0.046875 0.859375 0.046875 Z M 0.859375 0.046875 "/></g></g></g><g fill="#000000" fill-opacity="1"><g transform="translate(26.192687, 66.399992)"><g><path d="M 2.046875 -1 L 0.578125 -1 C 0.585938 -0.738281 0.648438 -0.546875 0.765625 -0.421875 C 0.878906 -0.304688 1.035156 -0.25 1.234375 -0.25 C 1.390625 -0.25 1.515625 -0.273438 1.609375 -0.328125 C 1.703125 -0.378906 1.773438 -0.460938 1.828125 -0.578125 L 1.875 -0.578125 L 2.078125 -0.46875 C 2.015625 -0.3125 1.914062 -0.1875 1.78125 -0.09375 C 1.644531 0 1.460938 0.046875 1.234375 0.046875 C 1.023438 0.046875 0.847656 0.00390625 0.703125 -0.078125 C 0.554688 -0.160156 0.441406 -0.285156 0.359375 -0.453125 C 0.273438 -0.617188 0.234375 -0.828125 0.234375 -1.078125 C 0.234375 -1.316406 0.273438 -1.519531 0.359375 -1.6875 C 0.453125 -1.863281 0.570312 -1.992188 0.71875 -2.078125 C 0.863281 -2.160156 1.03125 -2.203125 1.21875 -2.203125 C 1.5 -2.203125 1.710938 -2.125 1.859375 -1.96875 C 2.015625 -1.8125 2.097656 -1.578125 2.109375 -1.265625 C 2.109375 -1.148438 2.101562 -1.070312 2.09375 -1.03125 Z M 1.78125 -1.265625 C 1.78125 -1.492188 1.726562 -1.660156 1.625 -1.765625 C 1.53125 -1.867188 1.394531 -1.921875 1.21875 -1.921875 C 1.03125 -1.921875 0.878906 -1.867188 0.765625 -1.765625 C 0.660156 -1.660156 0.597656 -1.492188 0.578125 -1.265625 Z M 1.78125 -1.265625 "/></g></g></g><g fill="#000000" fill-opacity="1"><g transform="translate(28.487319, 66.399992)"><g/></g></g><g fill="#000000" fill-opacity="1"><g transform="translate(29.46683, 66.399992)"><g><path d="M 1.4375 0.046875 C 1.269531 0.046875 1.128906 0.015625 1.015625 -0.046875 C 0.898438 -0.109375 0.804688 -0.191406 0.734375 -0.296875 L 0.6875 -0.296875 L 0.6875 0 L 0.375 0 L 0.375 -3.015625 L 0.6875 -3.015625 L 0.6875 -1.828125 L 0.734375 -1.828125 C 0.898438 -2.078125 1.140625 -2.203125 1.453125 -2.203125 C 1.628906 -2.203125 1.78125 -2.160156 1.90625 -2.078125 C 2.039062 -1.992188 2.144531 -1.867188 2.21875 -1.703125 C 2.289062 -1.535156 2.328125 -1.328125 2.328125 -1.078125 C 2.328125 -0.828125 2.289062 -0.617188 2.21875 -0.453125 C 2.144531 -0.285156 2.039062 -0.160156 1.90625 -0.078125 C 1.769531 0.00390625 1.613281 0.046875 1.4375 0.046875 Z M 1.359375 -0.25 C 1.785156 -0.25 2 -0.523438 2 -1.078125 C 2 -1.367188 1.941406 -1.578125 1.828125 -1.703125 C 1.722656 -1.835938 1.566406 -1.90625 1.359375 -1.90625 C 1.148438 -1.90625 0.984375 -1.835938 0.859375 -1.703125 C 0.742188 -1.566406 0.6875 -1.359375 0.6875 -1.078125 C 0.6875 -0.796875 0.742188 -0.585938 0.859375 -0.453125 C 0.984375 -0.316406 1.148438 -0.25 1.359375 -0.25 Z M 1.359375 -0.25 "/></g></g></g><g fill="#000000" fill-opacity="1"><g transform="translate(32.034633, 66.399992)"><g><path d="M 0.53125 -2.578125 C 0.46875 -2.578125 0.414062 -2.597656 0.375 -2.640625 C 0.332031 -2.679688 0.3125 -2.734375 0.3125 -2.796875 C 0.3125 -2.859375 0.332031 -2.910156 0.375 -2.953125 C 0.414062 -2.992188 0.46875 -3.015625 0.53125 -3.015625 C 0.601562 -3.015625 0.660156 -2.992188 0.703125 -2.953125 C 0.742188 -2.910156 0.765625 -2.859375 0.765625 -2.796875 C 0.765625 -2.734375 0.742188 -2.679688 0.703125 -2.640625 C 0.660156 -2.597656 0.601562 -2.578125 0.53125 -2.578125 Z M 0.375 0 L 0.375 -2.15625 L 0.6875 -2.15625 L 0.6875 0 Z M 0.375 0 "/></g></g></g><g fill="#000000" fill-opacity="1"><g transform="translate(33.101954, 66.399992)"><g><path d="M 1.453125 -0.34375 L 1.5625 -0.109375 C 1.507812 -0.0546875 1.441406 -0.0195312 1.359375 0 C 1.273438 0.03125 1.1875 0.046875 1.09375 0.046875 C 0.675781 0.046875 0.46875 -0.160156 0.46875 -0.578125 L 0.46875 -1.890625 L 0.09375 -1.890625 L 0.09375 -2.15625 L 0.46875 -2.15625 L 0.46875 -2.609375 L 0.796875 -2.671875 L 0.796875 -2.15625 L 1.484375 -2.15625 L 1.484375 -1.890625 L 0.796875 -1.890625 L 0.796875 -0.609375 C 0.796875 -0.367188 0.898438 -0.25 1.109375 -0.25 C 1.234375 -0.25 1.335938 -0.28125 1.421875 -0.34375 Z M 1.453125 -0.34375 "/></g></g></g><g fill="#000000" fill-opacity="1"><g transform="translate(34.740977, 66.399992)"><g/></g></g><g fill="#000000" fill-opacity="1"><g transform="translate(35.720488, 66.399992)"><g><path d="M 1.234375 0.046875 C 1.035156 0.046875 0.859375 0.00390625 0.703125 -0.078125 C 0.554688 -0.171875 0.441406 -0.300781 0.359375 -0.46875 C 0.273438 -0.632812 0.234375 -0.835938 0.234375 -1.078125 C 0.234375 -1.316406 0.273438 -1.519531 0.359375 -1.6875 C 0.441406 -1.851562 0.554688 -1.976562 0.703125 -2.0625 C 0.859375 -2.15625 1.035156 -2.203125 1.234375 -2.203125 C 1.441406 -2.203125 1.617188 -2.15625 1.765625 -2.0625 C 1.921875 -1.976562 2.035156 -1.851562 2.109375 -1.6875 C 2.191406 -1.519531 2.234375 -1.316406 2.234375 -1.078125 C 2.234375 -0.835938 2.191406 -0.632812 2.109375 -0.46875 C 2.035156 -0.300781 1.921875 -0.171875 1.765625 -0.078125 C 1.617188 0.00390625 1.441406 0.046875 1.234375 0.046875 Z M 1.234375 -0.25 C 1.453125 -0.25 1.617188 -0.316406 1.734375 -0.453125 C 1.847656 -0.585938 1.90625 -0.796875 1.90625 -1.078125 C 1.90625 -1.359375 1.847656 -1.566406 1.734375 -1.703125 C 1.617188 -1.835938 1.453125 -1.90625 1.234375 -1.90625 C 1.023438 -1.90625 0.863281 -1.835938 0.75 -1.703125 C 0.632812 -1.566406 0.578125 -1.359375 0.578125 -1.078125 C 0.578125 -0.796875 0.632812 -0.585938 0.75 -0.453125 C 0.863281 -0.316406 1.023438 -0.25 1.234375 -0.25 Z M 1.234375 -0.25 "/></g></g></g><g fill="#000000" fill-opacity="1"><g transform="translate(38.190729, 66.399992)"><g><path d="M 0.484375 0 L 0.484375 -1.890625 L 0.109375 -1.890625 L 0.109375 -2.15625 L 0.484375 -2.15625 C 0.460938 -2.25 0.453125 -2.335938 0.453125 -2.421875 C 0.453125 -2.566406 0.476562 -2.6875 0.53125 -2.78125 C 0.59375 -2.875 0.675781 -2.941406 0.78125 -2.984375 C 0.882812 -3.035156 1.003906 -3.0625 1.140625 -3.0625 C 1.359375 -3.0625 1.523438 -3.015625 1.640625 -2.921875 L 1.515625 -2.703125 L 1.484375 -2.6875 C 1.390625 -2.757812 1.273438 -2.796875 1.140625 -2.796875 C 1.015625 -2.796875 0.921875 -2.757812 0.859375 -2.6875 C 0.796875 -2.625 0.765625 -2.535156 0.765625 -2.421875 C 0.765625 -2.347656 0.773438 -2.257812 0.796875 -2.15625 L 1.484375 -2.15625 L 1.484375 -1.890625 L 0.796875 -1.890625 L 0.796875 0 Z M 0.484375 0 "/></g></g></g><g fill="#000000" fill-opacity="1"><g transform="translate(39.724386, 66.399992)"><g/></g></g><g fill="#000000" fill-opacity="1"><g transform="translate(40.703898, 66.399992)"><g><path d="M 1.4375 0.046875 C 1.269531 0.046875 1.128906 0.015625 1.015625 -0.046875 C 0.898438 -0.109375 0.804688 -0.191406 0.734375 -0.296875 L 0.6875 -0.296875 L 0.6875 0 L 0.375 0 L 0.375 -3.015625 L 0.6875 -3.015625 L 0.6875 -1.828125 L 0.734375 -1.828125 C 0.898438 -2.078125 1.140625 -2.203125 1.453125 -2.203125 C 1.628906 -2.203125 1.78125 -2.160156 1.90625 -2.078125 C 2.039062 -1.992188 2.144531 -1.867188 2.21875 -1.703125 C 2.289062 -1.535156 2.328125 -1.328125 2.328125 -1.078125 C 2.328125 -0.828125 2.289062 -0.617188 2.21875 -0.453125 C 2.144531 -0.285156 2.039062 -0.160156 1.90625 -0.078125 C 1.769531 0.00390625 1.613281 0.046875 1.4375 0.046875 Z M 1.359375 -0.25 C 1.785156 -0.25 2 -0.523438 2 -1.078125 C 2 -1.367188 1.941406 -1.578125 1.828125 -1.703125 C 1.722656 -1.835938 1.566406 -1.90625 1.359375 -1.90625 C 1.148438 -1.90625 0.984375 -1.835938 0.859375 -1.703125 C 0.742188 -1.566406 0.6875 -1.359375 0.6875 -1.078125 C 0.6875 -0.796875 0.742188 -0.585938 0.859375 -0.453125 C 0.984375 -0.316406 1.148438 -0.25 1.359375 -0.25 Z M 1.359375 -0.25 "/></g></g></g><g fill="#000000" fill-opacity="1"><g transform="translate(43.2717, 66.399992)"><g><path d="M 1.234375 0.046875 C 1.035156 0.046875 0.859375 0.00390625 0.703125 -0.078125 C 0.554688 -0.171875 0.441406 -0.300781 0.359375 -0.46875 C 0.273438 -0.632812 0.234375 -0.835938 0.234375 -1.078125 C 0.234375 -1.316406 0.273438 -1.519531 0.359375 -1.6875 C 0.441406 -1.851562 0.554688 -1.976562 0.703125 -2.0625 C 0.859375 -2.15625 1.035156 -2.203125 1.234375 -2.203125 C 1.441406 -2.203125 1.617188 -2.15625 1.765625 -2.0625 C 1.921875 -1.976562 2.035156 -1.851562 2.109375 -1.6875 C 2.191406 -1.519531 2.234375 -1.316406 2.234375 -1.078125 C 2.234375 -0.835938 2.191406 -0.632812 2.109375 -0.46875 C 2.035156 -0.300781 1.921875 -0.171875 1.765625 -0.078125 C 1.617188 0.00390625 1.441406 0.046875 1.234375 0.046875 Z M 1.234375 -0.25 C 1.453125 -0.25 1.617188 -0.316406 1.734375 -0.453125 C 1.847656 -0.585938 1.90625 -0.796875 1.90625 -1.078125 C 1.90625 -1.359375 1.847656 -1.566406 1.734375 -1.703125 C 1.617188 -1.835938 1.453125 -1.90625 1.234375 -1.90625 C 1.023438 -1.90625 0.863281 -1.835938 0.75 -1.703125 C 0.632812 -1.566406 0.578125 -1.359375 0.578125 -1.078125 C 0.578125 -0.796875 0.632812 -0.585938 0.75 -0.453125 C 0.863281 -0.316406 1.023438 -0.25 1.234375 -0.25 Z M 1.234375 -0.25 "/></g></g></g><g fill="#000000" fill-opacity="1"><g transform="translate(45.741941, 66.399992)"><g><path d="M 1.125 0.046875 C 0.945312 0.046875 0.789062 0.00390625 0.65625 -0.078125 C 0.53125 -0.160156 0.425781 -0.285156 0.34375 -0.453125 C 0.269531 -0.617188 0.234375 -0.828125 0.234375 -1.078125 C 0.234375 -1.328125 0.269531 -1.535156 0.34375 -1.703125 C 0.425781 -1.867188 0.535156 -1.992188 0.671875 -2.078125 C 0.816406 -2.160156 0.976562 -2.203125 1.15625 -2.203125 C 1.300781 -2.203125 1.429688 -2.171875 1.546875 -2.109375 C 1.660156 -2.054688 1.757812 -1.96875 1.84375 -1.84375 L 1.875 -1.859375 L 1.875 -3.015625 L 2.203125 -3.015625 L 2.203125 0 L 1.875 0 L 1.875 -0.3125 L 1.84375 -0.328125 C 1.769531 -0.210938 1.671875 -0.117188 1.546875 -0.046875 C 1.429688 0.015625 1.289062 0.046875 1.125 0.046875 Z M 1.21875 -0.25 C 1.414062 -0.25 1.570312 -0.316406 1.6875 -0.453125 C 1.8125 -0.585938 1.875 -0.796875 1.875 -1.078125 C 1.875 -1.359375 1.8125 -1.566406 1.6875 -1.703125 C 1.570312 -1.835938 1.414062 -1.90625 1.21875 -1.90625 C 1.007812 -1.90625 0.847656 -1.835938 0.734375 -1.703125 C 0.628906 -1.578125 0.578125 -1.367188 0.578125 -1.078125 C 0.578125 -0.523438 0.789062 -0.25 1.21875 -0.25 Z M 1.21875 -0.25 "/></g></g></g><g fill="#000000" fill-opacity="1"><g transform="translate(48.3117, 66.399992)"><g><path d="M 0.4375 0.921875 C 0.363281 0.921875 0.296875 0.910156 0.234375 0.890625 C 0.171875 0.878906 0.113281 0.863281 0.0625 0.84375 L 0.125 0.59375 L 0.15625 0.578125 C 0.1875 0.597656 0.222656 0.613281 0.265625 0.625 C 0.316406 0.632812 0.367188 0.640625 0.421875 0.640625 C 0.503906 0.640625 0.570312 0.625 0.625 0.59375 C 0.6875 0.570312 0.738281 0.535156 0.78125 0.484375 C 0.820312 0.429688 0.863281 0.359375 0.90625 0.265625 L 0.96875 0.046875 L 0.109375 -2.15625 L 0.453125 -2.15625 L 1.125 -0.390625 L 1.171875 -0.390625 L 1.828125 -2.15625 L 2.15625 -2.15625 L 1.1875 0.34375 C 1.132812 0.476562 1.070312 0.585938 1 0.671875 C 0.9375 0.753906 0.859375 0.816406 0.765625 0.859375 C 0.671875 0.898438 0.5625 0.921875 0.4375 0.921875 Z M 0.4375 0.921875 "/></g></g></g><g fill="#000000" fill-opacity="1"><g transform="translate(50.580972, 66.399992)"><g/></g></g><g fill="#000000" fill-opacity="1"><g transform="translate(51.560483, 66.399992)"><g><path d="M 1.453125 -0.34375 L 1.5625 -0.109375 C 1.507812 -0.0546875 1.441406 -0.0195312 1.359375 0 C 1.273438 0.03125 1.1875 0.046875 1.09375 0.046875 C 0.675781 0.046875 0.46875 -0.160156 0.46875 -0.578125 L 0.46875 -1.890625 L 0.09375 -1.890625 L 0.09375 -2.15625 L 0.46875 -2.15625 L 0.46875 -2.609375 L 0.796875 -2.671875 L 0.796875 -2.15625 L 1.484375 -2.15625 L 1.484375 -1.890625 L 0.796875 -1.890625 L 0.796875 -0.609375 C 0.796875 -0.367188 0.898438 -0.25 1.109375 -0.25 C 1.234375 -0.25 1.335938 -0.28125 1.421875 -0.34375 Z M 1.453125 -0.34375 "/></g></g></g><g fill="#000000" fill-opacity="1"><g transform="translate(53.199506, 66.399992)"><g><path d="M 2.046875 -1 L 0.578125 -1 C 0.585938 -0.738281 0.648438 -0.546875 0.765625 -0.421875 C 0.878906 -0.304688 1.035156 -0.25 1.234375 -0.25 C 1.390625 -0.25 1.515625 -0.273438 1.609375 -0.328125 C 1.703125 -0.378906 1.773438 -0.460938 1.828125 -0.578125 L 1.875 -0.578125 L 2.078125 -0.46875 C 2.015625 -0.3125 1.914062 -0.1875 1.78125 -0.09375 C 1.644531 0 1.460938 0.046875 1.234375 0.046875 C 1.023438 0.046875 0.847656 0.00390625 0.703125 -0.078125 C 0.554688 -0.160156 0.441406 -0.285156 0.359375 -0.453125 C 0.273438 -0.617188 0.234375 -0.828125 0.234375 -1.078125 C 0.234375 -1.316406 0.273438 -1.519531 0.359375 -1.6875 C 0.453125 -1.863281 0.570312 -1.992188 0.71875 -2.078125 C 0.863281 -2.160156 1.03125 -2.203125 1.21875 -2.203125 C 1.5 -2.203125 1.710938 -2.125 1.859375 -1.96875 C 2.015625 -1.8125 2.097656 -1.578125 2.109375 -1.265625 C 2.109375 -1.148438 2.101562 -1.070312 2.09375 -1.03125 Z M 1.78125 -1.265625 C 1.78125 -1.492188 1.726562 -1.660156 1.625 -1.765625 C 1.53125 -1.867188 1.394531 -1.921875 1.21875 -1.921875 C 1.03125 -1.921875 0.878906 -1.867188 0.765625 -1.765625 C 0.660156 -1.660156 0.597656 -1.492188 0.578125 -1.265625 Z M 1.78125 -1.265625 "/></g></g></g><g fill="#000000" fill-opacity="1"><g transform="translate(55.494138, 66.399992)"><g><path d="M 0.453125 0 L 0.09375 0 L 0.765625 -1.125 L 0.125 -2.15625 L 0.484375 -2.15625 L 0.984375 -1.328125 L 1.03125 -1.328125 L 1.53125 -2.15625 L 1.875 -2.15625 L 1.265625 -1.125 L 1.90625 0 L 1.546875 0 L 1.015625 -0.90625 L 0.96875 -0.90625 Z M 0.453125 0 "/></g></g></g><g fill="#000000" fill-opacity="1"><g transform="translate(57.499989, 66.399992)"><g><path d="M 1.453125 -0.34375 L 1.5625 -0.109375 C 1.507812 -0.0546875 1.441406 -0.0195312 1.359375 0 C 1.273438 0.03125 1.1875 0.046875 1.09375 0.046875 C 0.675781 0.046875 0.46875 -0.160156 0.46875 -0.578125 L 0.46875 -1.890625 L 0.09375 -1.890625 L 0.09375 -2.15625 L 0.46875 -2.15625 L 0.46875 -2.609375 L 0.796875 -2.671875 L 0.796875 -2.15625 L 1.484375 -2.15625 L 1.484375 -1.890625 L 0.796875 -1.890625 L 0.796875 -0.609375 C 0.796875 -0.367188 0.898438 -0.25 1.109375 -0.25 C 1.234375 -0.25 1.335938 -0.28125 1.421875 -0.34375 Z M 1.453125 -0.34375 "/></g></g></g></svg>